<?xml version="1.0" encoding="UTF-8" standalone="yes"?>
<svg xmlns="http://www.w3.org/2000/svg" viewBox="0 0 64 64" width="64" height="64" fill="#ffffff">
  <path d="M 15.71875 2 C 14.226563 2 12.980469 3.070313 12.75 4.546875 L 11.085938 15.367188 C 9.796875 23.746094 14.285156 32.046875 22 35.554688 L 28.285156 38.410156 C 28.664063 38.582031 28.890625 38.960938 28.871094 39.375 L 28.160156 52.519531 C 28.089844 53.847656 27.175781 54.953125 25.886719 55.269531 L 20.28125 56.65625 C 18.9375 56.984375 18 58.183594 18 59.566406 L 18 60 C 18 61.101563 18.898438 62 20 62 L 44 62 C 45.101563 62 46 61.101563 46 60 L 46 59.566406 C 46 58.183594 45.0625 56.984375 43.71875 56.65625 L 38.113281 55.269531 C 36.824219 54.949219 35.914063 53.84375 35.84375 52.519531 L 35.128906 39.375 C 35.105469 38.960938 35.335938 38.582031 35.714844 38.410156 L 42 35.554688 C 49.714844 32.046875 54.203125 23.746094 52.914063 15.367188 L 51.25 4.542969 C 51.019531 3.070313 49.773438 2 48.28125 2 Z M 15.71875 4 L 48.28125 4 C 48.78125 4 49.195313 4.355469 49.269531 4.847656 L 50.9375 15.671875 C 52.089844 23.167969 48.074219 30.59375 41.171875 33.734375 L 34.886719 36.589844 C 33.753906 37.105469 33.066406 38.238281 33.128906 39.484375 L 33.84375 52.625 C 33.960938 54.839844 35.484375 56.679688 37.636719 57.210938 L 43.238281 58.59375 C 43.6875 58.707031 44 59.105469 44 59.566406 L 44 60 L 20 60 L 20 59.566406 C 20 59.105469 20.3125 58.707031 20.761719 58.59375 L 26.363281 57.210938 C 28.515625 56.679688 30.039063 54.839844 30.15625 52.625 L 30.867188 39.480469 C 30.933594 38.238281 30.246094 37.105469 29.113281 36.589844 L 22.828125 33.734375 C 15.925781 30.59375 11.910156 23.167969 13.0625 15.671875 L 13.320313 14 L 39 14 C 39.554688 14 40 13.550781 40 13 C 40 12.449219 39.554688 12 39 12 L 13.625 12 L 14.726563 4.847656 C 14.804688 4.355469 15.21875 4 15.71875 4 Z M 43 12 C 42.445313 12 42 12.449219 42 13 C 42 13.550781 42.445313 14 43 14 L 47 14 C 47.554688 14 48 13.550781 48 13 C 48 12.449219 47.554688 12 47 12 Z M 18.546875 18.371094 C 18.417969 18.382813 18.289063 18.425781 18.167969 18.492188 L 16.261719 19.5625 C 15.78125 19.835938 15.609375 20.445313 15.878906 20.925781 C 16.0625 21.253906 16.402344 21.4375 16.75 21.4375 C 16.917969 21.4375 17.085938 21.394531 17.238281 21.308594 L 19.148438 20.234375 C 19.628906 19.964844 19.800781 19.355469 19.53125 18.875 C 19.324219 18.511719 18.933594 18.324219 18.546875 18.371094 Z M 20.832031 22.6875 C 20.578125 22.675781 20.316406 22.757813 20.113281 22.941406 L 18.425781 24.457031 C 18.015625 24.828125 17.980469 25.460938 18.347656 25.871094 C 18.546875 26.089844 18.820313 26.203125 19.09375 26.203125 C 19.332031 26.203125 19.570313 26.121094 19.761719 25.949219 L 21.449219 24.433594 C 21.859375 24.0625 21.894531 23.429688 21.527344 23.019531 C 21.339844 22.8125 21.089844 22.703125 20.832031 22.6875 Z M 23.875 26.015625 C 23.621094 26.054688 23.382813 26.191406 23.21875 26.414063 L 21.863281 28.269531 C 21.539063 28.714844 21.636719 29.34375 22.082031 29.667969 C 22.261719 29.796875 22.46875 29.859375 22.671875 29.859375 C 22.980469 29.859375 23.285156 29.71875 23.480469 29.449219 L 24.835938 27.59375 C 25.160156 27.148438 25.0625 26.519531 24.617188 26.195313 C 24.394531 26.03125 24.125 25.976563 23.875 26.015625 Z M 28.199219 28.089844 C 27.808594 28.082031 27.433594 28.300781 27.261719 28.675781 L 26.328125 30.746094 C 26.101563 31.25 26.328125 31.84375 26.832031 32.066406 C 26.964844 32.128906 27.105469 32.15625 27.242188 32.15625 C 27.625 32.15625 27.988281 31.9375 28.15625 31.566406 L 29.085938 29.5 C 29.3125 28.992188 29.089844 28.402344 28.582031 28.175781 C 28.457031 28.121094 28.328125 28.09375 28.199219 28.089844 Z"/>
</svg>
